<?xml version="1.0" encoding="UTF-8" standalone="no"?>
<!-- The MIT License

Copyright (c) 2016 Type Supply LLC

Permission is hereby granted, free of charge, to any person obtaining a copy
of this software and associated documentation files (the "Software"), to deal
in the Software without restriction, including without limitation the rights
to use, copy, modify, merge, publish, distribute, sublicense, and/or sell
copies of the Software, and to permit persons to whom the Software is
furnished to do so, subject to the following conditions:

The above copyright notice and this permission notice shall be included in
all copies or substantial portions of the Software.

THE SOFTWARE IS PROVIDED "AS IS", WITHOUT WARRANTY OF ANY KIND, EXPRESS OR
IMPLIED, INCLUDING BUT NOT LIMITED TO THE WARRANTIES OF MERCHANTABILITY,
FITNESS FOR A PARTICULAR PURPOSE AND NONINFRINGEMENT. IN NO EVENT SHALL THE
AUTHORS OR COPYRIGHT HOLDERS BE LIABLE FOR ANY CLAIM, DAMAGES OR OTHER
LIABILITY, WHETHER IN AN ACTION OF CONTRACT, TORT OR OTHERWISE, ARISING FROM,
OUT OF OR IN CONNECTION WITH THE SOFTWARE OR THE USE OR OTHER DEALINGS IN
THE SOFTWARE.-->

<svg xml:space="preserve" viewBox="0 0 144 144" xmlns="http://www.w3.org/2000/svg">
  <g fill="none" stroke-miterlimit="10" stroke-width=".756">
    <path stroke="#000" d="M142.564 71.962a70.602 70.602 0 0 1-70.602 70.602A70.602 70.602 0 0 1 1.361 71.962a70.602 70.602 0 0 1 141.203 0z" vector-effect="non-scaling-stroke"/>
    <path stroke="#E60000" d="M93.203 79.068V64.932c0-10.583 4.913-15.496 15.496-15.496s15.496 4.913 15.496 15.496v14.135c0 10.583-4.913 15.496-15.496 15.496S93.203 89.65 93.203 79.067zM49.436 50.117v28.951c0 10.583-4.233 15.496-14.816 15.496s-14.816-4.913-14.816-15.496V50.117m38.778 43.767V50.117H83.98M67.049 74.079h16.932" vector-effect="non-scaling-stroke"/>
    <path stroke="#E60000" d="M62.816 93.883V54.35h21.165M67.049 69.846h16.932m13.455 9.222c0 7.786 3.553 11.263 11.263 11.263 7.786 0 11.263-3.553 11.263-11.263V64.932c0-7.786-3.553-11.263-11.263-11.263-7.786 0-11.263 3.553-11.263 11.263v14.135zM24.038 50.117v28.951c0 7.635 2.797 11.263 10.583 11.263s10.583-3.704 10.583-11.263V50.117" vector-effect="non-scaling-stroke"/>
    <path stroke="#E60000" d="M101.669 79.068c0 4.762 2.268 7.03 7.03 7.03s7.03-2.268 7.03-7.03V64.932c0-4.762-2.268-7.03-7.03-7.03s-7.03 2.268-7.03 7.03v14.135zM28.271 50.117v28.951c0 4.535 1.587 7.03 6.35 7.03s6.35-2.57 6.35-7.03V50.117M67.05 93.884V58.583h16.932M67.05 78.312h16.932" vector-effect="non-scaling-stroke"/>
    <path stroke="#D2D2D2" d="M115.351 33.865H84.964m26.306-4.233H84.964m21.165-4.233H84.964M71.962 38.098V21.165M64.63 33.864l14.74-8.466m0 8.466-14.74-8.466m-5.594 8.466H28.649m30.387-4.233H32.731m26.306-4.233H37.872m47.093 84.737h30.387m-30.387 4.233h26.306m-26.306 4.233h21.165m-34.167 4.233v-16.932m7.408 12.699-14.74-8.466m0 8.466 14.74-8.466" vector-effect="non-scaling-stroke"/>
    <path stroke="#000" d="M138.331 71.962a66.369 66.369 0 0 1-66.369 66.369A66.369 66.369 0 0 1 5.594 71.962a66.369 66.369 0 0 1 132.737 0z" vector-effect="non-scaling-stroke"/>
    <path stroke="#D2D2D2" d="M28.649 110.135h30.387m-26.306 4.233h26.306m-21.165 4.233h21.165" vector-effect="non-scaling-stroke"/>
  </g>
  <path fill="#D2D2D2" d="M70.98 20.183h2.041v2.041H70.98z"/>
  <path fill="#E60000" d="M18.746 49.058h2.041v2.041h-2.041zm4.233 0h2.041v2.041h-2.041zm4.233 0h2.041v2.041h-2.04zm12.699 0h2.041v2.041h-2.041zm4.233 0h2.041v2.041h-2.041zm4.233 0h2.041v2.041h-2.04z"/>
  <path fill="#D2D2D2" d="M70.98 37.115h2.041v2.041H70.98zm7.332-4.233h2.041v2.041h-2.041zm0-8.466h2.041v2.041h-2.041zm5.669 8.466h2.041v2.041h-2.041zm0-8.466h2.041v2.041h-2.041zm0 4.233h2.041v2.041h-2.041zm30.312 4.233h2.041v2.041h-2.041zm-9.146-8.466h2.041v2.041h-2.041zm5.065 4.233h2.041v2.041h-2.041zm-46.564 4.233h2.041v2.041h-2.041zm0-8.466h2.041v2.041h-2.041z"/>
  <path d="M73.172 5.669a1.209 1.209 0 0 1-1.21 1.21 1.209 1.209 0 0 1-1.209-1.21 1.209 1.209 0 0 1 2.419 0zm0-4.233a1.209 1.209 0 0 1-1.21 1.21 1.209 1.209 0 0 1-1.209-1.21 1.209 1.209 0 0 1 2.419 0zm0 141.128a1.209 1.209 0 0 1-1.21 1.209 1.209 1.209 0 0 1-1.209-1.209 1.209 1.209 0 0 1 2.419 0zm0-4.233a1.209 1.209 0 0 1-1.21 1.209 1.209 1.209 0 0 1-1.209-1.209 1.209 1.209 0 0 1 2.419 0zm66.368-66.369a1.209 1.209 0 0 1-1.209 1.21 1.209 1.209 0 0 1-1.21-1.21 1.209 1.209 0 0 1 2.419 0zm4.233 0a1.209 1.209 0 0 1-1.209 1.21 1.209 1.209 0 0 1-1.21-1.21 1.209 1.209 0 0 1 2.419 0zm-141.127 0a1.209 1.209 0 0 1-1.21 1.21 1.209 1.209 0 0 1-1.209-1.21 1.209 1.209 0 0 1 2.419 0z"/>
  <path fill="#E60000" d="M21.014 79.068a1.209 1.209 0 0 1-1.209 1.209 1.209 1.209 0 0 1-1.21-1.209 1.209 1.209 0 0 1 2.419 0zm4.233 0a1.209 1.209 0 0 1-1.209 1.209 1.209 1.209 0 0 1-1.21-1.209 1.209 1.209 0 0 1 2.419 0zm4.233 0a1.209 1.209 0 0 1-1.209 1.209 1.209 1.209 0 0 1-1.21-1.209 1.209 1.209 0 0 1 2.419 0zm12.7 0a1.209 1.209 0 0 1-1.21 1.209 1.209 1.209 0 0 1-1.209-1.209 1.209 1.209 0 0 1 2.419 0zm4.233 0a1.209 1.209 0 0 1-1.21 1.209 1.209 1.209 0 0 1-1.209-1.209 1.209 1.209 0 0 1 2.419 0zm4.233 0a1.209 1.209 0 0 1-1.21 1.209 1.209 1.209 0 0 1-1.209-1.209 1.209 1.209 0 0 1 2.419 0zm43.767 0a1.209 1.209 0 0 1-1.21 1.209 1.209 1.209 0 0 1-1.209-1.209 1.209 1.209 0 0 1 2.419 0zm4.233 0a1.209 1.209 0 0 1-1.21 1.209 1.209 1.209 0 0 1-1.209-1.209 1.209 1.209 0 0 1 2.419 0zm4.233 0a1.209 1.209 0 0 1-1.21 1.209 1.209 1.209 0 0 1-1.209-1.209 1.209 1.209 0 0 1 2.419 0zm14.06 0a1.209 1.209 0 0 1-1.21 1.209 1.209 1.209 0 0 1-1.209-1.209 1.209 1.209 0 0 1 2.419 0zm4.233 0a1.209 1.209 0 0 1-1.21 1.209 1.209 1.209 0 0 1-1.209-1.209 1.209 1.209 0 0 1 2.419 0zm4.233 0a1.209 1.209 0 0 1-1.21 1.209 1.209 1.209 0 0 1-1.209-1.209 1.209 1.209 0 0 1 2.419 0zM94.413 64.932a1.209 1.209 0 0 1-1.21 1.21 1.209 1.209 0 0 1-1.209-1.21 1.209 1.209 0 0 1 2.419 0zm4.233 0a1.209 1.209 0 0 1-1.21 1.21 1.209 1.209 0 0 1-1.209-1.21 1.209 1.209 0 0 1 2.419 0zm4.233 0a1.209 1.209 0 0 1-1.21 1.21 1.209 1.209 0 0 1-1.209-1.21 1.209 1.209 0 0 1 2.419 0zm14.06 0a1.209 1.209 0 0 1-1.21 1.21 1.209 1.209 0 0 1-1.209-1.21 1.209 1.209 0 0 1 2.419 0zm4.233 0a1.209 1.209 0 0 1-1.21 1.21 1.209 1.209 0 0 1-1.209-1.21 1.209 1.209 0 0 1 2.419 0zm4.233 0a1.209 1.209 0 0 1-1.21 1.21 1.209 1.209 0 0 1-1.209-1.21 1.209 1.209 0 0 1 2.419 0zM35.83 94.564a1.209 1.209 0 0 1-1.21 1.209 1.209 1.209 0 0 1-1.209-1.209 1.209 1.209 0 0 1 2.419 0zm0-4.233a1.209 1.209 0 0 1-1.21 1.209 1.209 1.209 0 0 1-1.209-1.209 1.209 1.209 0 0 1 2.419 0zm0-4.233a1.209 1.209 0 0 1-1.21 1.209 1.209 1.209 0 0 1-1.209-1.209 1.209 1.209 0 0 1 2.419 0zm74.079 8.466a1.209 1.209 0 0 1-1.21 1.209 1.209 1.209 0 0 1-1.209-1.209 1.209 1.209 0 0 1 2.419 0zm0-4.233a1.209 1.209 0 0 1-1.21 1.209 1.209 1.209 0 0 1-1.209-1.209 1.209 1.209 0 0 1 2.419 0zm0-4.233a1.209 1.209 0 0 1-1.21 1.209 1.209 1.209 0 0 1-1.209-1.209 1.209 1.209 0 0 1 2.419 0z"/>
  <path d="M6.879 71.962a1.209 1.209 0 0 1-1.21 1.21 1.209 1.209 0 0 1-1.209-1.21 1.209 1.209 0 0 1 2.419 0z"/>
  <path fill="#E60000" d="M57.524 92.825h2.041v2.041h-2.041zm4.233 0h2.041v2.041h-2.041zm4.233 0h2.041v2.041H65.99zm16.932-15.496h2.041v2.041h-2.041zm0-4.233h2.041v2.041h-2.041zm0-4.233h2.041v2.041h-2.041zM65.99 77.329h2.041v2.041H65.99zm0-4.233h2.041v2.041H65.99zm0-4.233h2.041v2.041H65.99zm16.932-11.339h2.041v2.041h-2.041zm0-4.233h2.041v2.041h-2.041zm0-4.233h2.041v2.041h-2.041zm-16.931 8.466h2.04v2.041H65.99zm-4.233-4.233h2.041v2.041h-2.041zm-4.233-4.233h2.041v2.041h-2.041zm52.384.378a1.209 1.209 0 0 1-1.21 1.21 1.209 1.209 0 0 1-1.209-1.21 1.209 1.209 0 0 1 2.419 0zm0 4.233a1.209 1.209 0 0 1-1.21 1.21 1.209 1.209 0 0 1-1.209-1.21 1.209 1.209 0 0 1 2.419 0zm0 4.233a1.209 1.209 0 0 1-1.21 1.21 1.209 1.209 0 0 1-1.209-1.21 1.209 1.209 0 0 1 2.419 0z"/>
  <path fill="#D2D2D2" d="M57.978 32.882h2.041v2.041h-2.041zm0-8.466h2.041v2.041h-2.041zm0 4.233h2.041v2.041h-2.041zm-30.387 4.233h2.041v2.041h-2.041zm9.222-8.466h2.041v2.041h-2.041zm-5.065 4.233h2.041v2.041h-2.041zm39.231 93.128h2.041v2.041h-2.041zm0-16.932h2.041v2.041h-2.041zm7.332 4.233h2.041v2.041h-2.041zm0 8.466h2.041v2.041h-2.041zm5.669-8.466h2.041v2.041H83.98zm0 8.466h2.041v2.041H83.98zm0-4.233h2.041v2.041H83.98zm30.312-4.233h2.041v2.041h-2.041zm-9.146 8.466h2.041v2.041h-2.041zm5.065-4.233h2.041v2.041h-2.041zm-46.564-4.233h2.041v2.041h-2.041zm0 8.466h2.041v2.041h-2.041zm-5.669-8.466h2.041v2.041h-2.041zm0 8.466h2.041v2.041h-2.041zm0-4.233h2.041v2.041h-2.041zm-30.387-4.233h2.041v2.041h-2.041zm9.222 8.466h2.041v2.041h-2.041zm-5.065-4.233h2.041v2.041h-2.041z"/>
</svg>